<svg version="1.2" baseProfile="tiny-ps" xmlns="http://www.w3.org/2000/svg" viewBox="0 0 512 512" width="25" height="25" fill="#ffffff"><path class="shp0" d="M456.54 302.19C454.81 300.45 452.75 299.58 450.38 299.58L397.75 299.58C393.73 299.58 390.99 301.69 389.53 305.89C381.85 324.16 377.01 334.85 375 337.96C362.21 358.79 345.22 375.14 324.02 387.02C302.82 398.9 279.98 404.83 255.5 404.83C237.77 404.83 220.69 401.54 204.25 394.97C187.8 388.39 173.09 379.07 160.12 367.01L197.67 329.46C201.14 325.99 202.88 321.88 202.88 317.13C202.88 312.38 201.14 308.26 197.67 304.79C194.19 301.32 190.08 299.58 185.33 299.58L62.54 299.58C57.79 299.58 53.68 301.32 50.21 304.79C46.73 308.26 45 312.38 45 317.13L45 439.92C45 444.67 46.73 448.78 50.21 452.25C53.68 455.72 57.79 457.46 62.54 457.46C67.29 457.46 71.4 455.72 74.88 452.25L110.23 416.89C129.78 435.53 152.03 449.87 176.97 459.93C201.92 469.97 227.72 475 254.4 475C304.47 475 348.14 459.79 385.42 429.36C422.69 398.94 447.18 359.24 458.87 310.27C459.05 309.91 459.15 309.27 459.15 308.35C459.15 305.98 458.28 303.93 456.54 302.19ZM460.79 76.75C457.32 73.28 453.21 71.54 448.46 71.54C443.7 71.54 439.59 73.28 436.12 76.75L400.49 112.11C380.94 93.65 358.56 79.35 333.34 69.21C308.12 59.07 282.18 54 255.5 54C205.25 54 161.39 69.21 123.94 99.64C86.48 130.06 61.81 169.76 49.93 218.73L49.93 220.65C49.93 223.02 50.8 225.08 52.54 226.81C54.27 228.55 56.33 229.42 58.7 229.42L113.25 229.42C117.27 229.42 120.01 227.32 121.47 223.11C129.15 204.84 133.98 194.15 136 191.04C148.79 170.21 165.78 153.86 186.98 141.98C208.17 130.11 231.01 124.17 255.5 124.17C292.23 124.17 324.11 136.68 351.16 161.72L313.33 199.54C309.86 203.01 308.12 207.13 308.12 211.88C308.12 216.63 309.86 220.74 313.33 224.21C316.8 227.68 320.91 229.42 325.67 229.42L448.46 229.42C453.21 229.42 457.32 227.68 460.79 224.21C464.26 220.74 466 216.63 466 211.88L466 89.08C466 84.33 464.26 80.22 460.79 76.75Z" /></svg>