<svg version="1.2" baseProfile="tiny-ps" xmlns="http://www.w3.org/2000/svg" viewBox="0 0 282 282" width="25" height="25" fill="#d2ccc0"><path class="shp0" d="M261.39 73.09C248.9 51.19 231.97 33.85 210.58 21.07C189.19 8.3 165.83 1.91 140.5 1.91C115.17 1.91 91.81 8.3 70.42 21.07C49.03 33.85 32.09 51.19 19.61 73.09C7.13 94.99 0.89 118.9 0.89 144.83C0.89 175.98 9.77 203.99 27.52 228.86C45.27 253.74 68.21 270.95 96.33 280.5C99.6 281.12 102.02 280.69 103.6 279.2C105.17 277.71 105.96 275.85 105.96 273.62C105.96 273.25 105.93 269.9 105.87 263.57C105.81 257.24 105.78 251.72 105.78 247.01L101.6 247.75C98.93 248.25 95.57 248.47 91.51 248.4C87.45 248.34 83.24 247.91 78.88 247.1C74.51 246.29 70.45 244.43 66.7 241.52C62.94 238.6 60.27 234.79 58.7 230.07L56.88 225.79C55.67 222.94 53.76 219.77 51.15 216.3C48.55 212.83 45.91 210.47 43.25 209.23L41.97 208.3C41.12 207.68 40.34 206.93 39.61 206.06C38.88 205.2 38.34 204.33 37.97 203.46C37.61 202.59 37.91 201.88 38.88 201.32C39.85 200.76 41.61 200.48 44.16 200.48L47.79 201.04C50.21 201.54 53.21 203.02 56.79 205.5C60.36 207.99 63.3 211.21 65.61 215.18C68.39 220.27 71.75 224.15 75.69 226.81C79.63 229.48 83.6 230.81 87.6 230.81C91.6 230.81 95.05 230.51 97.96 229.88C100.87 229.26 103.6 228.33 106.14 227.09C107.23 218.78 110.2 212.39 115.05 207.92C108.14 207.18 101.93 206.06 96.42 204.57C90.9 203.09 85.21 200.67 79.33 197.32C73.45 193.97 68.57 189.81 64.7 184.85C60.82 179.89 57.64 173.37 55.15 165.31C52.67 157.24 51.43 147.94 51.43 137.39C51.43 122.38 56.21 109.6 65.79 99.05C61.3 87.76 61.73 75.11 67.06 61.09C70.57 59.97 75.79 60.81 82.69 63.6C89.6 66.39 94.66 68.78 97.87 70.76C101.08 72.75 103.66 74.43 105.6 75.79C116.87 72.56 128.5 70.95 140.5 70.95C152.5 70.95 164.13 72.56 175.4 75.79L182.31 71.32C187.04 68.35 192.61 65.62 199.03 63.13C205.46 60.65 210.36 59.97 213.76 61.09C219.21 75.11 219.69 87.76 215.21 99.05C224.78 109.6 229.57 122.38 229.57 137.39C229.57 147.94 228.33 157.27 225.85 165.4C223.36 173.53 220.15 180.04 216.21 184.94C212.27 189.84 207.36 193.97 201.49 197.32C195.61 200.67 189.91 203.09 184.4 204.57C178.88 206.06 172.68 207.18 165.77 207.92C172.07 213.51 175.22 222.32 175.22 234.35L175.22 273.62C175.22 275.85 175.98 277.71 177.49 279.2C179.01 280.69 181.4 281.12 184.67 280.5C212.79 270.95 235.72 253.74 253.48 228.86C271.23 203.99 280.11 175.98 280.11 144.83C280.11 118.9 273.87 94.99 261.39 73.09Z" /></svg>