<svg version="1.2" baseProfile="tiny-ps" xmlns="http://www.w3.org/2000/svg" viewBox="0 0 282 282" width="25" height="25" fill="#ffffff">
	<path class="shp0" d="M231.63 79.98L231.63 79.22C231.63 30.18 192.77 0 137.32 0C105.33 0 79.91 9.02 59.54 22.98C47.69 31.09 46.63 48.89 55.3 60.33L61.63 68.68C70.3 80.13 85.84 81.22 98.41 74.27C109.87 67.94 121.5 64.51 132.41 64.51C150.52 64.51 160.71 72.43 160.71 85.26L160.71 85.64C160.71 101.86 145.24 125.05 101.48 128.82L99.97 130.51C99.14 131.45 100.19 143.73 102.31 157.93L104.05 169.51C106.17 183.71 118.11 195.22 130.72 195.22C143.32 195.22 154.56 189.81 155.8 183.15C157.05 176.48 158.07 171.07 158.07 171.07C199.94 160.88 231.63 127.51 231.63 79.98ZM118.42 217.09C104.06 217.09 92.43 228.74 92.43 243.09L92.43 255.23C92.43 269.59 104.07 281.23 118.42 281.23L140.74 281.23C155.1 281.23 166.74 269.59 166.74 255.23L166.74 243.09C166.74 228.73 155.1 217.09 140.74 217.09L118.42 217.09Z" />
</svg>